<svg width="515" height="513" viewBox="0 0 515 513" fill="none" xmlns="http://www.w3.org/2000/svg">
<path fill-rule="evenodd" clip-rule="evenodd" d="M231.104 1.16788C235.775 0.762387 240.824 0.310479 242.326 0.164394C247.346 -0.324377 279.772 0.360312 287.722 1.12282C345.806 6.69317 390.444 26.769 428.063 64.2405C460.057 96.1096 487.933 140.417 502.171 182.031C511.965 210.659 515.605 234.142 514.814 263.607C513.522 311.706 504.394 342.359 483.612 368.392C478.278 375.076 466.365 386.899 459.406 392.417C448.652 400.946 428.516 413.013 416.965 417.853L412.152 419.868L411.696 428.515C410.274 455.45 404.07 472.093 390.708 484.827C380.876 494.196 371.175 499.053 353.299 503.559C328.968 509.692 302.331 512.243 255.979 512.878C192.758 513.745 163.056 510.087 140.954 498.713C127.673 491.878 119.453 483.578 112.962 470.447C106.969 458.323 102.094 440.553 100.951 426.662L100.495 421.105L94.613 418.579C74.7563 410.052 55.2997 397.178 41.0905 383.164C17.3135 359.715 6.03352 333.112 1.25094 289.206C-0.414702 273.914 -0.417433 238.564 1.24548 225.038C6.396 183.146 18.6262 149.4 40.9581 115.462C65.7598 77.7704 100.593 46.6058 139.974 26.8727C166.908 13.3769 200.893 3.79058 231.104 1.16788ZM362.739 361.87C335.744 348.31 321.157 343.274 301.375 340.684C291.527 339.395 242.65 338.754 228.673 339.731C202.225 341.58 182.206 345.855 160.8 354.226C133.853 364.763 113.901 377.858 109.445 387.932C108.129 390.908 108.082 391.619 108.771 398.361C109.178 402.341 109.844 409.743 110.252 414.812C111.921 435.557 117.845 453.975 126.531 465.429C136.303 478.315 159.392 486.465 196.705 490.201C230.269 493.561 296.356 493.203 326.632 489.497C356.932 485.788 377.817 477.545 386.376 465.919C392.428 457.699 396.271 442.999 397.685 422.662C399.047 403.076 397.65 392.382 392.713 384.6C388.18 377.456 377.217 369.143 362.739 361.87ZM191.18 369.295C192.436 365.428 195.62 361.1 197.882 360.186C202.242 358.424 207.058 360.584 209.787 365.527C210.663 367.114 212.035 371.402 212.836 375.058C214.162 381.105 214.296 383.794 214.316 404.914C214.335 424.764 214.157 429.012 213.089 434.265C210.733 445.861 207.18 450.995 201.515 450.989C193.226 450.982 189.617 442.752 187.978 420.118C186.681 402.199 188.17 378.561 191.18 369.295ZM299.64 375.064C301.306 367.209 304.401 361.599 307.86 360.169C310.341 359.143 313.427 359.496 315.77 361.075C322.176 365.392 324.674 377.79 324.669 405.255C324.664 432.067 322.384 444.139 316.37 449.199C314.814 450.509 313.473 450.991 311.391 450.989C302.861 450.982 299.363 442.46 297.851 418C296.975 403.837 297.815 383.664 299.64 375.064Z" fill="url(#paint0_linear)"/>
<path d="M187.727 186.456H222.985C236.403 186.456 249.04 192.762 257.108 203.483L291.887 249.703C292.545 250.576 292.644 251.749 292.143 252.72L272.094 291.564C271.132 293.427 268.554 293.646 267.291 291.972L187.727 186.456Z" fill="#E5D1FF"/>
<path d="M326.46 186.518H291.202C277.784 186.518 265.147 180.211 257.079 169.491L222.3 123.271C221.642 122.398 221.543 121.225 222.045 120.254L242.093 81.4101C243.055 79.5464 245.633 79.3272 246.896 81.0017L326.46 186.518Z" fill="#E5D1FF"/>
<defs>
<linearGradient id="paint0_linear" x1="257" y1="1.15627e-05" x2="99" y2="234" gradientUnits="userSpaceOnUse">
<stop stop-color="#6700EB"/>
<stop offset="1" stop-color="#9644FF"/>
</linearGradient>
</defs>
</svg>
